HIERARCHY
ROOT Hips
{
  OFFSET 0.292604 18.4424 0.19921
  CHANNELS 6 Xposition Yposition Zposition Zrotation Xrotation Yrotation
  JOINT LHipJoint
  {
    OFFSET 0 0 0
    CHANNELS 3 Zrotation Xrotation Yrotation
    JOINT LeftUpLeg
    {
      OFFSET 1.8 -1.4 0.085
      CHANNELS 3 Zrotation Xrotation Yrotation
      JOINT LeftLeg
      {
        OFFSET 2.215 -6 0
        CHANNELS 3 Zrotation Xrotation Yrotation
        JOINT LeftFoot
        {
          OFFSET 2.5 -6.9 0
          CHANNELS 3 Zrotation Xrotation Yrotation
          JOINT LeftToeBase
          {
            OFFSET 0.2 -0.5 1.95
            CHANNELS 3 Zrotation Xrotation Yrotation
            End Site
            {
              OFFSET 0 0 1
            }
          }
        }
      }
    }
  }
  JOINT RHipJoint
  {
    OFFSET 0 0 0
    CHANNELS 3 Zrotation Xrotation Yrotation
    JOINT RightUpLeg
    {
      OFFSET -1.8 -1.4 0.085
      CHANNELS 3 Zrotation Xrotation Yrotation
      JOINT RightLeg
      {
        OFFSET -2.215 -6 0
        CHANNELS 3 Zrotation Xrotation Yrotation
        JOINT RightFoot
        {
          OFFSET -2.5 -6.9 0
          CHANNELS 3 Zrotation Xrotation Yrotation
          JOINT RightToeBase
          {
            OFFSET -0.2 -0.5 1.95
            CHANNELS 3 Zrotation Xrotation Yrotation
            End Site
            {
              OFFSET 0 0 1
            }
          }
        }
      }
    }
  }
  JOINT LowerBack
  {
    OFFSET 0 0 0
    CHANNELS 3 Zrotation Xrotation Yrotation
    JOINT Spine
    {
      OFFSET -0.087 1.94 -0.2889
      CHANNELS 3 Zrotation Xrotation Yrotation
      JOINT Spine1
      {
        OFFSET 0 1.95 0.06
        CHANNELS 3 Zrotation Xrotation Yrotation
        JOINT Neck
        {
          OFFSET 0 0 0
          CHANNELS 3 Zrotation Xrotation Yrotation
          JOINT Neck1
          {
            OFFSET 0 1.6 0.34
            CHANNELS 3 Zrotation Xrotation Yrotation
            JOINT Head
            {
              OFFSET 0 1.667 -0.24
              CHANNELS 3 Zrotation Xrotation Yrotation
              End Site
              {
                OFFSET 0 1.686 -0.12
              }
            }
          }
        }
        JOINT LeftShoulder
        {
          OFFSET 0 0 0
          CHANNELS 3 Zrotation Xrotation Yrotation
          JOINT LeftArm
          {
            OFFSET 2.7 1.55 -0.73
            CHANNELS 3 Zrotation Xrotation Yrotation
            JOINT LeftForeArm
            {
              OFFSET 5.45 0 0
              CHANNELS 3 Zrotation Xrotation Yrotation
              JOINT LeftHand
              {
                OFFSET 3.45 0 0
                CHANNELS 3 Zrotation Xrotation Yrotation
                JOINT LeftFingerBase
                {
                  OFFSET 0 0 0
                  CHANNELS 3 Zrotation Xrotation Yrotation
                  JOINT LeftHandIndex1
                  {
                    OFFSET 0.75 0 0
                    CHANNELS 3 Zrotation Xrotation Yrotation
                    End Site
                    {
                      OFFSET 0.6 0 0
                    }
                  }
                }
                JOINT LThumb
                {
                  OFFSET 0 0 0
                  CHANNELS 3 Zrotation Xrotation Yrotation
                  End Site
                  {
                    OFFSET 0.59 0 0.59
                  }
                }
              }
            }
          }
        }
        JOINT RightShoulder
        {
          OFFSET 0 0 0
          CHANNELS 3 Zrotation Xrotation Yrotation
          JOINT RightArm
          {
            OFFSET -2.7 1.55 -0.73
            CHANNELS 3 Zrotation Xrotation Yrotation
            JOINT RightForeArm
            {
              OFFSET -5.45 0 0
              CHANNELS 3 Zrotation Xrotation Yrotation
              JOINT RightHand
              {
                OFFSET -3.45 0 0
                CHANNELS 3 Zrotation Xrotation Yrotation
                JOINT RightFingerBase
                {
                  OFFSET 0 0 0
                  CHANNELS 3 Zrotation Xrotation Yrotation
                  JOINT RightHandIndex1
                  {
                    OFFSET -0.75 0 0
                    CHANNELS 3 Zrotation Xrotation Yrotation
                    End Site
                    {
                      OFFSET -0.6 0 0
                    }
                  }
                }
                JOINT RThumb
                {
                  OFFSET 0 0 0
                  CHANNELS 3 Zrotation Xrotation Yrotation
                  End Site
                  {
                    OFFSET -0.59 0 0.59
                  }
                }
              }
            }
          }
        }
      }
    }
  }
}
MOTION
Frames:	6
Frame Time:	0.00833333
0.292578 18.4424 0.199174 1.98134e-006 -0.0029308 -0.000666683 -5.92424e-024 7.76503e-019 1.94126e-019 -16.4551 0.399269 2.02397 -0.105543 2.22533 -1.01198 -0.370255 -2.61442 -1.03145 -2.63489e-015 3.75206e-015 -2.51668e-014 -5.92424e-024 7.76503e-019 1.94126e-019 15.0291 -4.77118 -12.0067 0.10398 8.77228 10.5325 -0.216724 -3.79077 1.44977 3.85885e-015 -5.82377e-019 -3.10601e-018 -5.92424e-024 7.76503e-019 1.94126e-019 -0.00100536 -0.00116344 0.00358991 0.000585233 0.00185229 0.00169207 1.20509e-008 -16 -2.007e-009 2.41287e-011 21 1.52472e-010 -0.000835759 10.9991 0.000163595 0.316029 0.00587225 3.36525 -49.3714 -48.8131 -47.169 27.2709 51.0292 -2.79599e-005 -1.98766 4.79313 -15.1499 -6.76018e-007 -5.11415e-007 1.7458e-006 0 0 -0 -7.95139e-016 -7.95139e-016 3.18055e-015 -0.333395 -0.00567312 -3.49471 26.6084 -42.4252 14.8347 3.46203 42.4755 6.66585e-005 -0.640037 1.8812 -3.42451 -1.66619e-006 4.11981e-007 -3.78908e-008 -3.90115e-015 -1.98785e-016 7.95139e-016 -2.01891e-016 6.21202e-016 -0 
0.292499 18.442 0.199021 0.000311894 -0.0029308 -0.00348782 -1.28438e-020 0 -7.76503e-019 -16.4965 0.418581 1.98829 -0.0186141 2.19934 -0.988261 -0.451657 -2.61594 -1.02599 -5.64953e-015 3.74895e-015 -2.5168e-014 -1.28438e-020 0 -7.76503e-019 15.0486 -4.76732 -11.994 0.0585314 8.78134 10.6048 -0.252949 -3.79227 1.44988 3.00294e-015 9.31803e-018 2.48481e-017 -1.28438e-020 0 -7.76503e-019 -0.00522912 -0.00605444 0.00358991 0.00278635 0.00920849 0.00169207 1.20509e-008 -16 -2.007e-009 2.41287e-011 21 1.52472e-010 -0.00455374 10.9943 9.36067e-005 0.316029 0.00587225 3.36525 -49.3567 -48.8075 -47.1627 27.2467 51.0067 -2.79463e-005 -1.93796 4.8144 -15.328 -6.76018e-007 -5.11415e-007 1.7458e-006 -7.95139e-016 -3.97569e-015 -3.18055e-015 3.97569e-016 1.59028e-015 6.36111e-015 -0.333395 -0.00567312 -3.49471 26.6143 -42.4248 14.85 3.46329 42.4694 6.6652e-005 -0.654248 1.88122 -3.41658 -1.66619e-006 4.11981e-007 -3.78908e-008 -4.50993e-015 -2.98177e-016 7.95139e-016 -1.90088e-015 2.48481e-017 -0 
0.292423 18.4417 0.198866 0.000670125 -0.0029308 -0.00633365 -4.1991e-020 0 -0 -16.5389 0.438346 1.95171 0.0705104 2.17273 -0.963824 -0.535035 -2.61763 -1.02045 -3.38941e-015 3.74274e-015 -2.51711e-014 -4.1991e-020 0 -0 15.0684 -4.7634 -11.9812 0.012108 8.79068 10.6791 -0.289912 -3.79388 1.45001 3.45265e-015 0 -0 -4.1991e-020 0 -0 -0.00948539 -0.0109844 0.00358991 0.00496509 0.0165562 0.00169207 1.20509e-008 -16 -2.007e-009 2.41287e-011 21 1.52472e-010 -0.00833175 10.9894 -9.22751e-005 0.316029 0.00587225 3.36525 -49.3416 -48.8018 -47.156 27.2216 50.9834 -2.79323e-005 -1.88758 4.83623 -15.5101 -6.76018e-007 -5.11415e-007 1.7458e-006 -1.59028e-015 -7.95139e-016 -3.18055e-015 -1.76556e-031 -1.59028e-015 -6.36111e-015 -0.333395 -0.00567312 -3.49471 26.6201 -42.4245 14.8653 3.46448 42.4632 6.66454e-005 -0.668541 1.88123 -3.40849 -1.66619e-006 4.11981e-007 -3.78908e-008 -1.24178e-014 6.21202e-016 2.38542e-015 -3.49737e-015 4.96962e-017 -0 
0.292307 18.4414 0.198728 0.000496858 -0.0029308 -0.00890775 -1.67775e-019 0 -0 -16.569 0.453143 1.92506 0.135743 2.15291 -0.947313 -0.596668 -2.6174 -1.01585 3.28629e-015 3.75517e-015 -2.51742e-014 -1.67775e-019 0 -0 15.0854 -4.76016 -11.9703 -0.0238984 8.79674 10.7325 -0.318755 -3.79417 1.44976 2.58687e-015 0 -0 -1.67775e-019 0 -0 -0.013384 -0.0154858 0.00358991 0.00738991 0.0239971 0.00169207 1.20509e-008 -16 -2.007e-009 2.41287e-011 21 1.52472e-010 -0.0114496 10.9862 0.000996682 0.316029 0.00587225 3.36525 -49.3325 -48.7974 -47.1548 27.205 50.9689 -2.79236e-005 -1.84288 4.85089 -15.6487 -6.76018e-007 -5.11415e-007 1.7458e-006 -3.97569e-016 -3.18055e-015 -0 -7.95139e-016 7.95139e-016 -0 -0.333395 -0.00567312 -3.49471 26.6262 -42.4232 14.8799 3.4663 42.4573 6.66391e-005 -0.681945 1.88125 -3.40213 -1.66619e-006 4.11981e-007 -3.78908e-008 -6.96989e-015 1.2424e-016 1.59028e-015 1.01567e-015 2.23633e-016 -7.95139e-016 
0.292108 18.4414 0.198628 -0.000812096 -0.0029308 -0.0109317 9.47879e-022 0 3.10601e-018 -16.573 0.457419 1.91937 0.150518 2.14755 -0.947628 -0.612462 -2.61311 -1.0132 2.24919e-015 3.75517e-015 -2.5168e-014 9.47879e-022 0 3.10601e-018 15.097 -4.75836 -11.9638 -0.0378862 8.7959 10.7417 -0.33049 -3.79156 1.44864 3.12567e-015 2.48481e-017 -4.96962e-017 9.47879e-022 0 3.10601e-018 -0.0165194 -0.0189977 0.00358991 0.010363 0.0315315 0.00169207 1.20509e-008 -16 -2.007e-009 2.41287e-011 21 1.52472e-010 -0.013167 10.9868 0.00480929 0.316029 0.00587225 3.36525 -49.3364 -48.7959 -47.1653 27.2064 50.973 -2.79261e-005 -1.80956 4.85033 -15.6955 -6.76018e-007 -5.11415e-007 1.7458e-006 -3.97569e-016 -7.95139e-016 -1.27222e-014 0 1.59028e-015 -0 -0.333395 -0.00567312 -3.49471 26.6328 -42.4198 14.8931 3.46955 42.4519 6.66334e-005 -0.693589 1.88125 -3.39948 -1.66619e-006 4.11981e-007 -3.78908e-008 2.48481e-016 -3.97569e-016 7.95139e-016 -5.00378e-015 0 -0 
0.291776 18.4417 0.198565 -0.00388814 -0.0029308 -0.0125499 -1.47158e-018 0 3.10601e-018 -16.5408 0.446684 1.9423 0.0961502 2.16382 -0.972499 -0.566169 -2.60287 -1.01319 -7.92627e-016 3.74954e-015 -2.51711e-014 -1.47158e-018 0 3.10601e-018 15.1017 -4.75874 -11.9626 -0.0218745 8.78545 10.6883 -0.31918 -3.78392 1.44594 4.13068e-015 2.48481e-017 4.96962e-017 -1.47158e-018 0 3.10601e-018 -0.0184817 -0.0198811 0.00358991 0.0145208 0.0376486 0.00169208 1.20509e-008 -16 -2.007e-009 2.41287e-011 21 1.52472e-010 -0.0128588 10.9936 0.0128545 0.316029 0.00587225 3.36525 -49.3602 -48.7985 -47.1942 27.2354 51.0079 -2.79471e-005 -1.77925 4.82558 -15.6183 -6.76018e-007 -5.11415e-007 1.7458e-006 -3.97569e-016 0 -0 8.82781e-032 -7.95139e-016 6.36111e-015 -0.333395 -0.00567312 -3.49471 26.6383 -42.4126 14.9036 3.47629 42.446 6.66271e-005 -0.70451 1.88124 -3.40302 -1.66619e-006 4.11981e-007 -3.78908e-008 -1.68967e-015 -3.23025e-016 -0 1.64929e-015 -4.72114e-016 -0 
